<svg xmlns="http://www.w3.org/2000/svg" width="1400" height="900" viewBox="0 0 1400 900">
  <defs>
    <linearGradient id="bg" x1="0" y1="0" x2="1" y2="1">
      <stop offset="0" stop-color="#0b2a21"/>
      <stop offset="1" stop-color="#061a14"/>
    </linearGradient>
    <linearGradient id="accent" x1="0" y1="0" x2="1" y2="0">
      <stop offset="0" stop-color="#38f2c6"/>
      <stop offset="1" stop-color="#1fd19c"/>
    </linearGradient>
    <filter id="shadow" x="-20%" y="-20%" width="140%" height="140%">
      <feDropShadow dx="0" dy="24" stdDeviation="24" flood-color="#000" flood-opacity="0.35"/>
    </filter>
  </defs>

  <rect width="1400" height="900" rx="44" fill="url(#bg)"/>
  <circle cx="320" cy="210" r="300" fill="#38f2c6" opacity="0.10"/>
  <circle cx="1120" cy="240" r="320" fill="#1fd19c" opacity="0.10"/>
  <circle cx="820" cy="860" r="420" fill="#10b981" opacity="0.08"/>

  <g filter="url(#shadow)">
    <rect x="110" y="110" width="1180" height="680" rx="28" fill="rgba(255,255,255,0.06)" stroke="rgba(255,255,255,0.14)"/>

    <rect x="160" y="168" width="560" height="96" rx="20" fill="rgba(0,0,0,0.18)" stroke="rgba(255,255,255,0.12)"/>
    <text x="192" y="212" font-family="system-ui, -apple-system, Segoe UI, sans-serif" font-size="22" font-weight="800" fill="rgba(231,245,239,0.92)">LeafPass · 今日绿色打卡</text>
    <text x="192" y="242" font-family="system-ui, -apple-system, Segoe UI, sans-serif" font-size="13" font-weight="650" fill="rgba(231,245,239,0.70)">Telegram 里完成 2–3 个任务 · 记录 · 徽章 · 积分</text>

    <g>
      <rect x="160" y="282" width="188" height="52" rx="26" fill="url(#accent)"/>
      <text x="188" y="315" font-family="system-ui, -apple-system, Segoe UI, sans-serif" font-size="15" font-weight="800" fill="#052018">在 Telegram 开始</text>
      <rect x="360" y="282" width="160" height="52" rx="26" fill="rgba(255,255,255,0.10)" stroke="rgba(255,255,255,0.16)"/>
      <text x="398" y="315" font-family="system-ui, -apple-system, Segoe UI, sans-serif" font-size="14" font-weight="700" fill="rgba(231,245,239,0.92)">7 天 Pioneer</text>
    </g>

    <g>
      <rect x="160" y="354" width="560" height="110" rx="20" fill="rgba(0,0,0,0.18)" stroke="rgba(255,255,255,0.12)"/>
      <text x="192" y="388" font-family="system-ui, -apple-system, Segoe UI, sans-serif" font-size="13" font-weight="800" fill="rgba(231,245,239,0.86)">快速概览</text>
      <g font-family="system-ui, -apple-system, Segoe UI, sans-serif" font-size="13" fill="rgba(231,245,239,0.76)">
        <text x="192" y="420">• 连续打卡 Streak：7 天</text>
        <text x="392" y="420">• 今日积分：+30</text>
        <text x="192" y="448">• 已解锁徽章：LeafPass Pioneer</text>
      </g>
    </g>

    <g>
      <rect x="160" y="482" width="560" height="268" rx="22" fill="rgba(0,0,0,0.18)" stroke="rgba(255,255,255,0.12)"/>
      <text x="192" y="518" font-family="system-ui, -apple-system, Segoe UI, sans-serif" font-size="13" font-weight="800" fill="rgba(231,245,239,0.86)">你的 LeafPass</text>
      <rect x="192" y="538" width="110" height="24" rx="12" fill="rgba(255,255,255,0.08)" stroke="rgba(255,255,255,0.10)"/>
      <text x="214" y="555" font-family="system-ui, -apple-system, Segoe UI, sans-serif" font-size="12" font-weight="700" fill="rgba(231,245,239,0.86)">SEA · 个人</text>

      <g>
        <rect x="192" y="580" width="162" height="140" rx="18" fill="rgba(255,255,255,0.06)" stroke="rgba(255,255,255,0.10)"/>
        <rect x="372" y="580" width="162" height="140" rx="18" fill="rgba(255,255,255,0.06)" stroke="rgba(255,255,255,0.10)"/>
        <rect x="552" y="580" width="136" height="140" rx="18" fill="rgba(255,255,255,0.06)" stroke="rgba(255,255,255,0.10)"/>

        <circle cx="273" cy="642" r="34" fill="#38f2c6" opacity="0.85"/>
        <circle cx="453" cy="642" r="34" fill="#1fd19c" opacity="0.85"/>
        <circle cx="620" cy="642" r="30" fill="#10b981" opacity="0.80"/>
        <rect x="222" y="688" width="102" height="10" rx="5" fill="rgba(231,245,239,0.20)"/>
        <rect x="402" y="688" width="102" height="10" rx="5" fill="rgba(231,245,239,0.20)"/>
        <rect x="580" y="688" width="80" height="10" rx="5" fill="rgba(231,245,239,0.20)"/>
      </g>

      <g>
        <rect x="192" y="736" width="496" height="42" rx="21" fill="rgba(255,255,255,0.08)" stroke="rgba(255,255,255,0.14)"/>
        <text x="228" y="763" font-family="system-ui, -apple-system, Segoe UI, sans-serif" font-size="13" font-weight="800" fill="rgba(231,245,239,0.88)">一键导出记录</text>
        <rect x="560" y="748" width="112" height="18" rx="9" fill="url(#accent)" opacity="0.95"/>
      </g>
    </g>

    <g>
      <rect x="760" y="168" width="470" height="612" rx="28" fill="rgba(0,0,0,0.18)" stroke="rgba(255,255,255,0.12)"/>
      <rect x="790" y="200" width="410" height="52" rx="18" fill="rgba(255,255,255,0.08)" stroke="rgba(255,255,255,0.12)"/>
      <circle cx="818" cy="226" r="12" fill="#38f2c6" opacity="0.95"/>
      <text x="842" y="230" font-family="system-ui, -apple-system, Segoe UI, sans-serif" font-size="14" font-weight="800" fill="rgba(231,245,239,0.92)">LeafPass Bot</text>
      <rect x="1086" y="214" width="88" height="24" rx="12" fill="rgba(255,255,255,0.08)" stroke="rgba(255,255,255,0.12)"/>
      <text x="1106" y="231" font-family="system-ui, -apple-system, Segoe UI, sans-serif" font-size="12" font-weight="700" fill="rgba(231,245,239,0.82)">Verified</text>

      <rect x="790" y="270" width="410" height="78" rx="18" fill="rgba(255,255,255,0.06)" stroke="rgba(255,255,255,0.10)"/>
      <text x="814" y="300" font-family="system-ui, -apple-system, Segoe UI, sans-serif" font-size="13" font-weight="800" fill="rgba(231,245,239,0.88)">今日任务（3/3）</text>
      <text x="814" y="324" font-family="system-ui, -apple-system, Segoe UI, sans-serif" font-size="12" font-weight="650" fill="rgba(231,245,239,0.72)">步行 5,000 步 · 不用一次性塑料袋 · 关灯 30 分钟</text>

      <g>
        <rect x="790" y="368" width="410" height="92" rx="18" fill="rgba(0,0,0,0.14)" stroke="rgba(255,255,255,0.10)"/>
        <text x="814" y="398" font-family="system-ui, -apple-system, Segoe UI, sans-serif" font-size="12" font-weight="800" fill="rgba(231,245,239,0.86)">任务 1：步行 5,000 步</text>
        <rect x="814" y="412" width="150" height="10" rx="5" fill="rgba(231,245,239,0.16)"/>
        <rect x="814" y="434" width="98" height="16" rx="8" fill="url(#accent)"/>
        <text x="824" y="446" font-family="system-ui, -apple-system, Segoe UI, sans-serif" font-size="11" font-weight="900" fill="#052018">完成 +10</text>
      </g>

      <g>
        <rect x="790" y="474" width="410" height="92" rx="18" fill="rgba(0,0,0,0.14)" stroke="rgba(255,255,255,0.10)"/>
        <text x="814" y="504" font-family="system-ui, -apple-system, Segoe UI, sans-serif" font-size="12" font-weight="800" fill="rgba(231,245,239,0.86)">任务 2：不用一次性塑料袋</text>
        <rect x="814" y="518" width="210" height="10" rx="5" fill="rgba(231,245,239,0.16)"/>
        <rect x="814" y="540" width="98" height="16" rx="8" fill="url(#accent)"/>
        <text x="824" y="552" font-family="system-ui, -apple-system, Segoe UI, sans-serif" font-size="11" font-weight="900" fill="#052018">完成 +10</text>
      </g>

      <g>
        <rect x="790" y="580" width="410" height="112" rx="18" fill="rgba(0,0,0,0.14)" stroke="rgba(255,255,255,0.10)"/>
        <text x="814" y="610" font-family="system-ui, -apple-system, Segoe UI, sans-serif" font-size="12" font-weight="800" fill="rgba(231,245,239,0.86)">任务 3：关灯节能 30 分钟</text>
        <rect x="814" y="624" width="240" height="10" rx="5" fill="rgba(231,245,239,0.16)"/>
        <rect x="814" y="646" width="98" height="16" rx="8" fill="url(#accent)"/>
        <text x="824" y="658" font-family="system-ui, -apple-system, Segoe UI, sans-serif" font-size="11" font-weight="900" fill="#052018">完成 +10</text>
        <rect x="920" y="646" width="126" height="16" rx="8" fill="rgba(255,255,255,0.08)" stroke="rgba(255,255,255,0.14)"/>
        <text x="932" y="658" font-family="system-ui, -apple-system, Segoe UI, sans-serif" font-size="11" font-weight="800" fill="rgba(231,245,239,0.86)">上传照片（可选）</text>
      </g>

      <rect x="790" y="710" width="410" height="54" rx="18" fill="rgba(255,255,255,0.06)" stroke="rgba(255,255,255,0.12)"/>
      <rect x="814" y="730" width="270" height="14" rx="7" fill="rgba(231,245,239,0.18)"/>
      <circle cx="1174" cy="738" r="12" fill="url(#accent)" opacity="0.95"/>
    </g>
  </g>
</svg>
