<svg xmlns="http://www.w3.org/2000/svg" width="1400" height="900" viewBox="0 0 1400 900">
  <defs>
    <linearGradient id="bg" x1="0" y1="0" x2="1" y2="1">
      <stop offset="0" stop-color="#061a14"/>
      <stop offset="1" stop-color="#06251c"/>
    </linearGradient>
    <linearGradient id="accent" x1="0" y1="0" x2="1" y2="0">
      <stop offset="0" stop-color="#38f2c6"/>
      <stop offset="1" stop-color="#1fd19c"/>
    </linearGradient>
  </defs>
  <rect width="1400" height="900" rx="44" fill="url(#bg)"/>
  <rect x="120" y="130" width="1160" height="640" rx="28" fill="rgba(255,255,255,0.06)" stroke="rgba(255,255,255,0.14)"/>

  <g font-family="system-ui, -apple-system, Segoe UI, sans-serif">
    <text x="170" y="210" font-size="20" fill="rgba(231,245,239,0.92)" font-weight="750">Pioneer 7‑Day Journey</text>
    <text x="170" y="244" font-size="14" fill="rgba(231,245,239,0.70)">A guided onboarding into quests → badges → export.</text>
  </g>

  <g>
    <rect x="170" y="290" width="720" height="430" rx="22" fill="rgba(0,0,0,0.18)" stroke="rgba(255,255,255,0.12)"/>
    <rect x="210" y="334" width="640" height="60" rx="18" fill="rgba(255,255,255,0.06)" stroke="rgba(255,255,255,0.10)"/>
    <rect x="210" y="410" width="640" height="60" rx="18" fill="rgba(255,255,255,0.06)" stroke="rgba(255,255,255,0.10)"/>
    <rect x="210" y="486" width="640" height="60" rx="18" fill="rgba(255,255,255,0.06)" stroke="rgba(255,255,255,0.10)"/>
    <rect x="210" y="562" width="640" height="60" rx="18" fill="rgba(255,255,255,0.06)" stroke="rgba(255,255,255,0.10)"/>
    <rect x="210" y="638" width="640" height="60" rx="18" fill="rgba(255,255,255,0.06)" stroke="rgba(255,255,255,0.10)"/>

    <g fill="url(#accent)">
      <circle cx="250" cy="364" r="18"/>
      <circle cx="250" cy="440" r="18"/>
      <circle cx="250" cy="516" r="18"/>
      <circle cx="250" cy="592" r="18"/>
      <circle cx="250" cy="668" r="18"/>
    </g>
    <g font-family="system-ui, -apple-system, Segoe UI, sans-serif" font-size="14" fill="#052018" font-weight="800">
      <text x="244" y="370">1</text>
      <text x="244" y="446">2</text>
      <text x="244" y="522">3</text>
      <text x="244" y="598">4</text>
      <text x="244" y="674">7</text>
    </g>

    <g fill="rgba(231,245,239,0.28)">
      <rect x="286" y="352" width="240" height="14" rx="7"/>
      <rect x="286" y="428" width="300" height="14" rx="7"/>
      <rect x="286" y="504" width="260" height="14" rx="7"/>
      <rect x="286" y="580" width="320" height="14" rx="7"/>
      <rect x="286" y="656" width="220" height="14" rx="7"/>
    </g>
    <g fill="rgba(231,245,239,0.18)">
      <rect x="286" y="374" width="420" height="12" rx="6"/>
      <rect x="286" y="450" width="460" height="12" rx="6"/>
      <rect x="286" y="526" width="440" height="12" rx="6"/>
      <rect x="286" y="602" width="480" height="12" rx="6"/>
      <rect x="286" y="678" width="400" height="12" rx="6"/>
    </g>
  </g>

  <g>
    <rect x="920" y="290" width="310" height="430" rx="22" fill="rgba(0,0,0,0.18)" stroke="rgba(255,255,255,0.12)"/>
    <rect x="950" y="330" width="250" height="16" rx="8" fill="rgba(231,245,239,0.30)"/>
    <rect x="950" y="362" width="200" height="12" rx="6" fill="rgba(231,245,239,0.20)"/>
    <rect x="950" y="408" width="250" height="44" rx="12" fill="rgba(255,255,255,0.06)" stroke="rgba(255,255,255,0.10)"/>
    <rect x="950" y="464" width="250" height="44" rx="12" fill="rgba(255,255,255,0.06)" stroke="rgba(255,255,255,0.10)"/>
    <rect x="950" y="520" width="250" height="44" rx="12" fill="rgba(255,255,255,0.06)" stroke="rgba(255,255,255,0.10)"/>
    <rect x="950" y="590" width="250" height="52" rx="26" fill="url(#accent)"/>
    <text x="1020" y="624" font-family="system-ui, -apple-system, Segoe UI, sans-serif" font-size="15" fill="#052018" font-weight="800">Join</text>
  </g>
</svg>
