<svg xmlns="http://www.w3.org/2000/svg" width="1400" height="900" viewBox="0 0 1400 900">
  <defs>
    <linearGradient id="bg" x1="0" y1="0" x2="1" y2="1">
      <stop offset="0" stop-color="#06251c"/>
      <stop offset="1" stop-color="#061a14"/>
    </linearGradient>
    <linearGradient id="accent" x1="0" y1="0" x2="1" y2="0">
      <stop offset="0" stop-color="#38f2c6"/>
      <stop offset="1" stop-color="#1fd19c"/>
    </linearGradient>
  </defs>
  <rect width="1400" height="900" rx="44" fill="url(#bg)"/>

  <rect x="120" y="130" width="1160" height="640" rx="28" fill="rgba(255,255,255,0.06)" stroke="rgba(255,255,255,0.14)"/>
  <g font-family="system-ui, -apple-system, Segoe UI, sans-serif">
    <text x="170" y="210" font-size="20" fill="rgba(231,245,239,0.92)" font-weight="750">Profile & Badges</text>
    <text x="170" y="244" font-size="14" fill="rgba(231,245,239,0.70)">A shareable LeafPass built from real check-ins.</text>
  </g>

  <g>
    <rect x="170" y="290" width="470" height="430" rx="22" fill="rgba(0,0,0,0.18)" stroke="rgba(255,255,255,0.12)"/>
    <circle cx="240" cy="356" r="34" fill="url(#accent)"/>
    <rect x="292" y="336" width="260" height="16" rx="8" fill="rgba(231,245,239,0.30)"/>
    <rect x="292" y="360" width="200" height="12" rx="6" fill="rgba(231,245,239,0.22)"/>
    <rect x="210" y="410" width="390" height="86" rx="18" fill="rgba(255,255,255,0.06)" stroke="rgba(255,255,255,0.10)"/>
    <rect x="210" y="512" width="390" height="86" rx="18" fill="rgba(255,255,255,0.06)" stroke="rgba(255,255,255,0.10)"/>
    <rect x="210" y="614" width="390" height="86" rx="18" fill="rgba(255,255,255,0.06)" stroke="rgba(255,255,255,0.10)"/>
    <rect x="236" y="444" width="180" height="14" rx="7" fill="rgba(231,245,239,0.28)"/>
    <rect x="236" y="546" width="210" height="14" rx="7" fill="rgba(231,245,239,0.28)"/>
    <rect x="236" y="648" width="200" height="14" rx="7" fill="rgba(231,245,239,0.28)"/>
    <rect x="236" y="466" width="120" height="12" rx="6" fill="#38f2c6" opacity="0.85"/>
    <rect x="236" y="568" width="160" height="12" rx="6" fill="#38f2c6" opacity="0.85"/>
    <rect x="236" y="670" width="90" height="12" rx="6" fill="#38f2c6" opacity="0.85"/>
  </g>

  <g>
    <rect x="700" y="290" width="530" height="430" rx="22" fill="rgba(0,0,0,0.18)" stroke="rgba(255,255,255,0.12)"/>
    <rect x="740" y="330" width="450" height="18" rx="9" fill="rgba(231,245,239,0.32)"/>
    <rect x="740" y="360" width="360" height="14" rx="7" fill="rgba(231,245,239,0.22)"/>
    <g>
      <rect x="740" y="410" width="140" height="140" rx="22" fill="rgba(255,255,255,0.06)" stroke="rgba(255,255,255,0.10)"/>
      <rect x="900" y="410" width="140" height="140" rx="22" fill="rgba(255,255,255,0.06)" stroke="rgba(255,255,255,0.10)"/>
      <rect x="1060" y="410" width="140" height="140" rx="22" fill="rgba(255,255,255,0.06)" stroke="rgba(255,255,255,0.10)"/>
      <circle cx="810" cy="480" r="34" fill="#38f2c6" opacity="0.85"/>
      <circle cx="970" cy="480" r="34" fill="#1fd19c" opacity="0.85"/>
      <circle cx="1130" cy="480" r="34" fill="#10b981" opacity="0.80"/>
      <rect x="770" y="530" width="80" height="10" rx="5" fill="rgba(231,245,239,0.22)"/>
      <rect x="930" y="530" width="80" height="10" rx="5" fill="rgba(231,245,239,0.22)"/>
      <rect x="1090" y="530" width="80" height="10" rx="5" fill="rgba(231,245,239,0.22)"/>
    </g>
    <rect x="740" y="590" width="450" height="96" rx="18" fill="rgba(255,255,255,0.06)" stroke="rgba(255,255,255,0.10)"/>
    <rect x="770" y="620" width="220" height="14" rx="7" fill="rgba(231,245,239,0.26)"/>
    <rect x="770" y="646" width="320" height="12" rx="6" fill="rgba(231,245,239,0.18)"/>
    <rect x="770" y="666" width="280" height="12" rx="6" fill="rgba(231,245,239,0.16)"/>
  </g>
</svg>
