<svg xmlns="http://www.w3.org/2000/svg" width="1400" height="900" viewBox="0 0 1400 900">
  <defs>
    <linearGradient id="bg" x1="0" y1="0" x2="1" y2="1">
      <stop offset="0" stop-color="#06251c"/>
      <stop offset="1" stop-color="#061a14"/>
    </linearGradient>
    <linearGradient id="accent" x1="0" y1="0" x2="1" y2="0">
      <stop offset="0" stop-color="#38f2c6"/>
      <stop offset="1" stop-color="#1fd19c"/>
    </linearGradient>
    <filter id="shadow" x="-20%" y="-20%" width="140%" height="140%">
      <feDropShadow dx="0" dy="18" stdDeviation="18" flood-color="#000" flood-opacity="0.35"/>
    </filter>
  </defs>

  <rect width="1400" height="900" rx="44" fill="url(#bg)"/>
  <circle cx="360" cy="210" r="280" fill="#38f2c6" opacity="0.10"/>
  <circle cx="1120" cy="260" r="340" fill="#1fd19c" opacity="0.10"/>

  <g filter="url(#shadow)">
    <rect x="120" y="130" width="1160" height="640" rx="28" fill="rgba(255,255,255,0.06)" stroke="rgba(255,255,255,0.14)"/>

    <g>
      <rect x="170" y="190" width="520" height="530" rx="26" fill="rgba(0,0,0,0.20)" stroke="rgba(255,255,255,0.12)"/>
      <rect x="170" y="190" width="520" height="56" rx="26" fill="rgba(0,0,0,0.24)" stroke="rgba(255,255,255,0.10)"/>
      <circle cx="206" cy="218" r="10" fill="#38f2c6" opacity="0.95"/>
      <text x="226" y="223" font-family="system-ui, -apple-system, Segoe UI, sans-serif" font-size="13" font-weight="850" fill="rgba(231,245,239,0.90)">个人档案</text>
      <rect x="604" y="208" width="66" height="18" rx="9" fill="rgba(255,255,255,0.08)" stroke="rgba(255,255,255,0.12)"/>
      <text x="620" y="221" font-family="system-ui, -apple-system, Segoe UI, sans-serif" font-size="11" font-weight="800" fill="rgba(231,245,239,0.82)">Export</text>

      <circle cx="240" cy="300" r="34" fill="url(#accent)"/>
      <text x="288" y="294" font-family="system-ui, -apple-system, Segoe UI, sans-serif" font-size="16" font-weight="900" fill="rgba(231,245,239,0.92)">GreenSphere User</text>
      <text x="288" y="318" font-family="system-ui, -apple-system, Segoe UI, sans-serif" font-size="12" font-weight="650" fill="rgba(231,245,239,0.70)">SEA · Individual · LeafPass #001</text>

      <g>
        <rect x="206" y="356" width="440" height="86" rx="18" fill="rgba(255,255,255,0.06)" stroke="rgba(255,255,255,0.10)"/>
        <rect x="206" y="456" width="440" height="86" rx="18" fill="rgba(255,255,255,0.06)" stroke="rgba(255,255,255,0.10)"/>
        <rect x="206" y="556" width="440" height="86" rx="18" fill="rgba(255,255,255,0.06)" stroke="rgba(255,255,255,0.10)"/>

        <text x="232" y="388" font-family="system-ui, -apple-system, Segoe UI, sans-serif" font-size="12" font-weight="850" fill="rgba(231,245,239,0.88)">Streak</text>
        <text x="232" y="488" font-family="system-ui, -apple-system, Segoe UI, sans-serif" font-size="12" font-weight="850" fill="rgba(231,245,239,0.88)">G‑Points</text>
        <text x="232" y="588" font-family="system-ui, -apple-system, Segoe UI, sans-serif" font-size="12" font-weight="850" fill="rgba(231,245,239,0.88)">Impact</text>

        <text x="232" y="418" font-family="system-ui, -apple-system, Segoe UI, sans-serif" font-size="22" font-weight="950" fill="rgba(231,245,239,0.94)">7</text>
        <text x="232" y="518" font-family="system-ui, -apple-system, Segoe UI, sans-serif" font-size="22" font-weight="950" fill="rgba(231,245,239,0.94)">120</text>
        <text x="232" y="618" font-family="system-ui, -apple-system, Segoe UI, sans-serif" font-size="22" font-weight="950" fill="rgba(231,245,239,0.94)">0.8kg</text>

        <rect x="302" y="406" width="320" height="10" rx="5" fill="rgba(231,245,239,0.14)"/>
        <rect x="302" y="506" width="320" height="10" rx="5" fill="rgba(231,245,239,0.14)"/>
        <rect x="302" y="606" width="320" height="10" rx="5" fill="rgba(231,245,239,0.14)"/>

        <rect x="302" y="406" width="210" height="10" rx="5" fill="url(#accent)" opacity="0.9"/>
        <rect x="302" y="506" width="260" height="10" rx="5" fill="url(#accent)" opacity="0.9"/>
        <rect x="302" y="606" width="160" height="10" rx="5" fill="url(#accent)" opacity="0.9"/>
      </g>
    </g>

    <g>
      <rect x="730" y="190" width="500" height="530" rx="26" fill="rgba(0,0,0,0.20)" stroke="rgba(255,255,255,0.12)"/>
      <rect x="730" y="190" width="500" height="56" rx="26" fill="rgba(0,0,0,0.24)" stroke="rgba(255,255,255,0.10)"/>
      <circle cx="766" cy="218" r="10" fill="#38f2c6" opacity="0.95"/>
      <text x="786" y="223" font-family="system-ui, -apple-system, Segoe UI, sans-serif" font-size="13" font-weight="850" fill="rgba(231,245,239,0.90)">徽章墙</text>
      <rect x="1134" y="208" width="78" height="18" rx="9" fill="rgba(255,255,255,0.08)" stroke="rgba(255,255,255,0.12)"/>
      <text x="1146" y="221" font-family="system-ui, -apple-system, Segoe UI, sans-serif" font-size="11" font-weight="800" fill="rgba(231,245,239,0.82)">Share</text>

      <g>
        <rect x="760" y="274" width="440" height="84" rx="18" fill="rgba(255,255,255,0.06)" stroke="rgba(255,255,255,0.10)"/>
        <text x="786" y="306" font-family="system-ui, -apple-system, Segoe UI, sans-serif" font-size="12" font-weight="850" fill="rgba(231,245,239,0.88)">本周完成</text>
        <rect x="786" y="322" width="330" height="10" rx="5" fill="rgba(231,245,239,0.14)"/>
        <rect x="786" y="322" width="244" height="10" rx="5" fill="url(#accent)" opacity="0.9"/>
        <text x="1130" y="334" font-family="system-ui, -apple-system, Segoe UI, sans-serif" font-size="11" font-weight="800" fill="rgba(231,245,239,0.80)">7/10</text>
      </g>

      <g>
        <rect x="760" y="378" width="140" height="140" rx="22" fill="rgba(255,255,255,0.06)" stroke="rgba(255,255,255,0.10)"/>
        <rect x="910" y="378" width="140" height="140" rx="22" fill="rgba(255,255,255,0.06)" stroke="rgba(255,255,255,0.10)"/>
        <rect x="1060" y="378" width="140" height="140" rx="22" fill="rgba(255,255,255,0.06)" stroke="rgba(255,255,255,0.10)"/>

        <circle cx="830" cy="448" r="34" fill="#38f2c6" opacity="0.85"/>
        <circle cx="980" cy="448" r="34" fill="#1fd19c" opacity="0.85"/>
        <circle cx="1130" cy="448" r="34" fill="#10b981" opacity="0.80"/>
        <text x="812" y="456" font-family="system-ui, -apple-system, Segoe UI, sans-serif" font-size="11" font-weight="950" fill="#052018">P1</text>
        <text x="962" y="456" font-family="system-ui, -apple-system, Segoe UI, sans-serif" font-size="11" font-weight="950" fill="#052018">S7</text>
        <text x="1112" y="456" font-family="system-ui, -apple-system, Segoe UI, sans-serif" font-size="11" font-weight="950" fill="#052018">E3</text>

        <rect x="790" y="500" width="80" height="10" rx="5" fill="rgba(231,245,239,0.18)"/>
        <rect x="940" y="500" width="80" height="10" rx="5" fill="rgba(231,245,239,0.18)"/>
        <rect x="1090" y="500" width="80" height="10" rx="5" fill="rgba(231,245,239,0.18)"/>
      </g>

      <g>
        <rect x="760" y="542" width="440" height="160" rx="18" fill="rgba(255,255,255,0.06)" stroke="rgba(255,255,255,0.10)"/>
        <text x="786" y="574" font-family="system-ui, -apple-system, Segoe UI, sans-serif" font-size="12" font-weight="850" fill="rgba(231,245,239,0.88)">最近打卡</text>
        <g fill="rgba(231,245,239,0.18)">
          <rect x="786" y="592" width="360" height="12" rx="6"/>
          <rect x="786" y="620" width="320" height="12" rx="6"/>
          <rect x="786" y="648" width="340" height="12" rx="6"/>
        </g>
        <g fill="url(#accent)" opacity="0.85">
          <rect x="1148" y="590" width="44" height="14" rx="7"/>
          <rect x="1148" y="618" width="44" height="14" rx="7"/>
          <rect x="1148" y="646" width="44" height="14" rx="7"/>
        </g>
      </g>
    </g>
  </g>
</svg>
