<svg xmlns="http://www.w3.org/2000/svg" width="1400" height="900" viewBox="0 0 1400 900">
  <defs>
    <linearGradient id="bg" x1="0" y1="0" x2="1" y2="1">
      <stop offset="0" stop-color="#06251c"/>
      <stop offset="1" stop-color="#061a14"/>
    </linearGradient>
    <linearGradient id="accent" x1="0" y1="0" x2="1" y2="0">
      <stop offset="0" stop-color="#38f2c6"/>
      <stop offset="1" stop-color="#1fd19c"/>
    </linearGradient>
    <filter id="shadow" x="-20%" y="-20%" width="140%" height="140%">
      <feDropShadow dx="0" dy="18" stdDeviation="18" flood-color="#000" flood-opacity="0.35"/>
    </filter>
  </defs>

  <rect width="1400" height="900" rx="44" fill="url(#bg)"/>
  <circle cx="320" cy="220" r="280" fill="#38f2c6" opacity="0.10"/>
  <circle cx="1120" cy="240" r="320" fill="#1fd19c" opacity="0.10"/>

  <g filter="url(#shadow)">
    <rect x="120" y="130" width="1160" height="640" rx="28" fill="rgba(255,255,255,0.06)" stroke="rgba(255,255,255,0.14)"/>

    <text x="170" y="212" font-family="system-ui, -apple-system, Segoe UI, sans-serif" font-size="20" font-weight="900" fill="rgba(231,245,239,0.92)">Roadmap 面板（产品视角）</text>
    <text x="170" y="244" font-family="system-ui, -apple-system, Segoe UI, sans-serif" font-size="13" font-weight="650" fill="rgba(231,245,239,0.70)">用更像真实后台/看板的布局替代空列表。</text>

    <g>
      <rect x="170" y="280" width="1060" height="480" rx="26" fill="rgba(0,0,0,0.20)" stroke="rgba(255,255,255,0.12)"/>
      <rect x="170" y="280" width="1060" height="56" rx="26" fill="rgba(0,0,0,0.24)" stroke="rgba(255,255,255,0.10)"/>
      <circle cx="206" cy="308" r="10" fill="#38f2c6" opacity="0.95"/>
      <text x="226" y="313" font-family="system-ui, -apple-system, Segoe UI, sans-serif" font-size="13" font-weight="850" fill="rgba(231,245,239,0.90)">Next</text>
      <rect x="1010" y="298" width="96" height="20" rx="10" fill="rgba(255,255,255,0.08)" stroke="rgba(255,255,255,0.12)"/>
      <text x="1026" y="312" font-family="system-ui, -apple-system, Segoe UI, sans-serif" font-size="11" font-weight="800" fill="rgba(231,245,239,0.82)">Q1 2026</text>
    </g>

    <g>
      <rect x="206" y="360" width="320" height="380" rx="22" fill="rgba(255,255,255,0.06)" stroke="rgba(255,255,255,0.10)"/>
      <rect x="552" y="360" width="320" height="380" rx="22" fill="rgba(255,255,255,0.06)" stroke="rgba(255,255,255,0.10)"/>
      <rect x="898" y="360" width="296" height="380" rx="22" fill="rgba(255,255,255,0.06)" stroke="rgba(255,255,255,0.10)"/>

      <text x="232" y="398" font-family="system-ui, -apple-system, Segoe UI, sans-serif" font-size="14" font-weight="900" fill="rgba(231,245,239,0.92)">个人侧</text>
      <text x="578" y="398" font-family="system-ui, -apple-system, Segoe UI, sans-serif" font-size="14" font-weight="900" fill="rgba(231,245,239,0.92)">企业/工厂侧</text>
      <text x="924" y="398" font-family="system-ui, -apple-system, Segoe UI, sans-serif" font-size="14" font-weight="900" fill="rgba(231,245,239,0.92)">生态合作</text>

      <g>
        <rect x="232" y="420" width="268" height="76" rx="18" fill="rgba(0,0,0,0.16)" stroke="rgba(255,255,255,0.10)"/>
        <rect x="232" y="508" width="268" height="76" rx="18" fill="rgba(0,0,0,0.16)" stroke="rgba(255,255,255,0.10)"/>
        <rect x="232" y="596" width="268" height="76" rx="18" fill="rgba(0,0,0,0.16)" stroke="rgba(255,255,255,0.10)"/>
        <g fill="rgba(231,245,239,0.18)">
          <rect x="252" y="446" width="210" height="12" rx="6"/>
          <rect x="252" y="468" width="176" height="10" rx="5"/>
          <rect x="252" y="534" width="226" height="12" rx="6"/>
          <rect x="252" y="556" width="190" height="10" rx="5"/>
          <rect x="252" y="622" width="204" height="12" rx="6"/>
          <rect x="252" y="644" width="170" height="10" rx="5"/>
        </g>
        <g fill="url(#accent)" opacity="0.9">
          <rect x="418" y="444" width="72" height="14" rx="7"/>
          <rect x="418" y="532" width="72" height="14" rx="7"/>
          <rect x="418" y="620" width="72" height="14" rx="7"/>
        </g>
      </g>

      <g>
        <rect x="578" y="420" width="268" height="96" rx="18" fill="rgba(0,0,0,0.16)" stroke="rgba(255,255,255,0.10)"/>
        <rect x="578" y="532" width="268" height="96" rx="18" fill="rgba(0,0,0,0.16)" stroke="rgba(255,255,255,0.10)"/>
        <rect x="578" y="644" width="268" height="76" rx="18" fill="rgba(0,0,0,0.16)" stroke="rgba(255,255,255,0.10)"/>
        <g fill="rgba(231,245,239,0.18)">
          <rect x="598" y="448" width="220" height="12" rx="6"/>
          <rect x="598" y="470" width="200" height="10" rx="5"/>
          <rect x="598" y="492" width="170" height="10" rx="5"/>
          <rect x="598" y="560" width="230" height="12" rx="6"/>
          <rect x="598" y="582" width="180" height="10" rx="5"/>
          <rect x="598" y="604" width="210" height="10" rx="5"/>
          <rect x="598" y="672" width="210" height="12" rx="6"/>
          <rect x="598" y="694" width="160" height="10" rx="5"/>
        </g>
        <g fill="url(#accent)" opacity="0.9">
          <rect x="774" y="446" width="72" height="14" rx="7"/>
          <rect x="774" y="558" width="72" height="14" rx="7"/>
          <rect x="774" y="670" width="72" height="14" rx="7"/>
        </g>
      </g>

      <g>
        <rect x="924" y="420" width="244" height="88" rx="18" fill="rgba(0,0,0,0.16)" stroke="rgba(255,255,255,0.10)"/>
        <rect x="924" y="520" width="244" height="88" rx="18" fill="rgba(0,0,0,0.16)" stroke="rgba(255,255,255,0.10)"/>
        <rect x="924" y="620" width="244" height="100" rx="18" fill="rgba(0,0,0,0.16)" stroke="rgba(255,255,255,0.10)"/>
        <g fill="rgba(231,245,239,0.18)">
          <rect x="944" y="446" width="190" height="12" rx="6"/>
          <rect x="944" y="468" width="160" height="10" rx="5"/>
          <rect x="944" y="546" width="200" height="12" rx="6"/>
          <rect x="944" y="568" width="170" height="10" rx="5"/>
          <rect x="944" y="646" width="210" height="12" rx="6"/>
          <rect x="944" y="668" width="180" height="10" rx="5"/>
          <rect x="944" y="690" width="150" height="10" rx="5"/>
        </g>
        <g fill="url(#accent)" opacity="0.9">
          <rect x="1094" y="444" width="56" height="14" rx="7"/>
          <rect x="1094" y="544" width="56" height="14" rx="7"/>
          <rect x="1094" y="644" width="56" height="14" rx="7"/>
        </g>
      </g>
    </g>
  </g>
</svg>
