<svg xmlns="http://www.w3.org/2000/svg" width="1400" height="900" viewBox="0 0 1400 900">
  <defs>
    <linearGradient id="bg" x1="0" y1="0" x2="1" y2="1">
      <stop offset="0" stop-color="#06251c"/>
      <stop offset="1" stop-color="#061a14"/>
    </linearGradient>
    <linearGradient id="accent" x1="0" y1="0" x2="1" y2="0">
      <stop offset="0" stop-color="#38f2c6"/>
      <stop offset="1" stop-color="#1fd19c"/>
    </linearGradient>
  </defs>
  <rect width="1400" height="900" rx="44" fill="url(#bg)"/>
  <rect x="120" y="130" width="1160" height="640" rx="28" fill="rgba(255,255,255,0.06)" stroke="rgba(255,255,255,0.14)"/>

  <g font-family="system-ui, -apple-system, Segoe UI, sans-serif">
    <text x="170" y="210" font-size="20" fill="rgba(231,245,239,0.92)" font-weight="750">Next Roadmap</text>
    <text x="170" y="244" font-size="14" fill="rgba(231,245,239,0.70)">Individuals → Companies → Ecosystem.</text>
  </g>

  <g>
    <rect x="170" y="300" width="350" height="430" rx="22" fill="rgba(0,0,0,0.18)" stroke="rgba(255,255,255,0.12)"/>
    <rect x="540" y="300" width="350" height="430" rx="22" fill="rgba(0,0,0,0.18)" stroke="rgba(255,255,255,0.12)"/>
    <rect x="910" y="300" width="350" height="430" rx="22" fill="rgba(0,0,0,0.18)" stroke="rgba(255,255,255,0.12)"/>

    <g font-family="system-ui, -apple-system, Segoe UI, sans-serif" font-size="16" fill="rgba(231,245,239,0.92)" font-weight="750">
      <text x="206" y="350">Individuals</text>
      <text x="576" y="350">Companies</text>
      <text x="946" y="350">Ecosystem</text>
    </g>

    <g fill="rgba(231,245,239,0.20)">
      <rect x="206" y="384" width="260" height="14" rx="7"/>
      <rect x="206" y="416" width="280" height="12" rx="6"/>
      <rect x="206" y="442" width="240" height="12" rx="6"/>
      <rect x="206" y="478" width="290" height="14" rx="7"/>
      <rect x="206" y="510" width="260" height="12" rx="6"/>
      <rect x="206" y="536" width="220" height="12" rx="6"/>

      <rect x="576" y="384" width="270" height="14" rx="7"/>
      <rect x="576" y="416" width="290" height="12" rx="6"/>
      <rect x="576" y="442" width="240" height="12" rx="6"/>
      <rect x="576" y="478" width="300" height="14" rx="7"/>
      <rect x="576" y="510" width="260" height="12" rx="6"/>
      <rect x="576" y="536" width="240" height="12" rx="6"/>

      <rect x="946" y="384" width="270" height="14" rx="7"/>
      <rect x="946" y="416" width="290" height="12" rx="6"/>
      <rect x="946" y="442" width="240" height="12" rx="6"/>
      <rect x="946" y="478" width="300" height="14" rx="7"/>
      <rect x="946" y="510" width="260" height="12" rx="6"/>
      <rect x="946" y="536" width="240" height="12" rx="6"/>
    </g>

    <g fill="url(#accent)" opacity="0.85">
      <rect x="206" y="580" width="150" height="10" rx="5"/>
      <rect x="576" y="580" width="170" height="10" rx="5"/>
      <rect x="946" y="580" width="160" height="10" rx="5"/>
    </g>
  </g>
</svg>
