<svg xmlns="http://www.w3.org/2000/svg" width="1400" height="900" viewBox="0 0 1400 900">
  <defs>
    <linearGradient id="bg" x1="0" y1="0" x2="1" y2="1">
      <stop offset="0" stop-color="#061a14"/>
      <stop offset="1" stop-color="#06251c"/>
    </linearGradient>
    <linearGradient id="accent" x1="0" y1="0" x2="1" y2="0">
      <stop offset="0" stop-color="#38f2c6"/>
      <stop offset="1" stop-color="#1fd19c"/>
    </linearGradient>
  </defs>
  <rect width="1400" height="900" rx="44" fill="url(#bg)"/>
  <rect x="110" y="140" width="1180" height="620" rx="28" fill="rgba(255,255,255,0.06)" stroke="rgba(255,255,255,0.14)"/>

  <g font-family="system-ui, -apple-system, Segoe UI, sans-serif">
    <text x="160" y="210" font-size="20" fill="rgba(231,245,239,0.92)" font-weight="750">3‑Step Flow</text>
    <text x="160" y="244" font-size="14" fill="rgba(231,245,239,0.70)">Tap → check in → earn points → build your LeafPass.</text>
  </g>

  <g>
    <rect x="160" y="300" width="1080" height="140" rx="22" fill="rgba(0,0,0,0.18)" stroke="rgba(255,255,255,0.12)"/>
    <circle cx="220" cy="370" r="34" fill="url(#accent)"/>
    <text x="210" y="378" font-family="system-ui, -apple-system, Segoe UI, sans-serif" font-size="18" fill="#052018" font-weight="800">1</text>
    <rect x="280" y="330" width="360" height="18" rx="9" fill="rgba(231,245,239,0.34)"/>
    <rect x="280" y="362" width="520" height="14" rx="7" fill="rgba(231,245,239,0.24)"/>
    <rect x="280" y="388" width="420" height="14" rx="7" fill="rgba(231,245,239,0.20)"/>
  </g>

  <g>
    <rect x="160" y="468" width="1080" height="140" rx="22" fill="rgba(0,0,0,0.18)" stroke="rgba(255,255,255,0.12)"/>
    <circle cx="220" cy="538" r="34" fill="url(#accent)"/>
    <text x="210" y="546" font-family="system-ui, -apple-system, Segoe UI, sans-serif" font-size="18" fill="#052018" font-weight="800">2</text>
    <rect x="280" y="498" width="420" height="18" rx="9" fill="rgba(231,245,239,0.34)"/>
    <rect x="280" y="530" width="520" height="14" rx="7" fill="rgba(231,245,239,0.24)"/>
    <rect x="280" y="556" width="480" height="14" rx="7" fill="rgba(231,245,239,0.20)"/>
  </g>

  <g>
    <rect x="160" y="636" width="1080" height="140" rx="22" fill="rgba(0,0,0,0.18)" stroke="rgba(255,255,255,0.12)"/>
    <circle cx="220" cy="706" r="34" fill="url(#accent)"/>
    <text x="210" y="714" font-family="system-ui, -apple-system, Segoe UI, sans-serif" font-size="18" fill="#052018" font-weight="800">3</text>
    <rect x="280" y="666" width="520" height="18" rx="9" fill="rgba(231,245,239,0.34)"/>
    <rect x="280" y="698" width="560" height="14" rx="7" fill="rgba(231,245,239,0.24)"/>
    <rect x="280" y="724" width="430" height="14" rx="7" fill="rgba(231,245,239,0.20)"/>
  </g>
</svg>
