<svg xmlns="http://www.w3.org/2000/svg" width="1600" height="900" viewBox="0 0 1600 900">
  <defs>
    <linearGradient id="bg" x1="0" y1="0" x2="1" y2="1">
      <stop offset="0" stop-color="#061512"/>
      <stop offset="1" stop-color="#04110e"/>
    </linearGradient>
    <radialGradient id="g1" cx="18%" cy="12%" r="55%">
      <stop offset="0" stop-color="rgba(27,191,114,0.35)"/>
      <stop offset="1" stop-color="rgba(27,191,114,0)"/>
    </radialGradient>
    <radialGradient id="g2" cx="82%" cy="18%" r="55%">
      <stop offset="0" stop-color="rgba(87,242,166,0.22)"/>
      <stop offset="1" stop-color="rgba(87,242,166,0)"/>
    </radialGradient>
    <filter id="shadow" x="-20%" y="-20%" width="140%" height="140%">
      <feDropShadow dx="0" dy="20" stdDeviation="18" flood-color="rgba(0,0,0,0.45)"/>
    </filter>
  </defs>

  <rect width="1600" height="900" fill="url(#bg)"/>
  <rect width="1600" height="900" fill="url(#g1)"/>
  <rect width="1600" height="900" fill="url(#g2)"/>

  <g transform="translate(120,70)">
    <rect x="0" y="0" rx="18" ry="18" width="1360" height="72" fill="rgba(3,12,10,0.72)" stroke="rgba(255,255,255,0.12)"/>
    <g transform="translate(22,18)" font-family="-apple-system,BlinkMacSystemFont,Segoe UI,sans-serif">
      <circle cx="18" cy="18" r="18" fill="rgba(255,255,255,0.06)" stroke="rgba(87,242,166,0.55)"/>
      <path d="M18 8 C24 10,28 16,26 22 C24 30,14 32,12 22 C11 17,14 10,18 8Z" fill="#57f2a6"/>
      <path d="M18 8 L18 30" stroke="#1bbf72" stroke-width="2" stroke-linecap="round"/>
      <text x="52" y="26" font-size="18" fill="rgba(255,255,255,0.92)" font-weight="800">GreenSphere</text>
      <text x="52" y="44" font-size="12" fill="rgba(255,255,255,0.60)">Admin Console</text>
    </g>
    <g transform="translate(1080,18)" font-family="-apple-system,BlinkMacSystemFont,Segoe UI,sans-serif">
      <rect x="0" y="0" rx="14" ry="14" width="200" height="36" fill="rgba(0,0,0,0.25)" stroke="rgba(255,255,255,0.16)"/>
      <text x="16" y="24" font-size="12" fill="rgba(255,255,255,0.55)">X-Admin-Key</text>
      <rect x="216" y="0" rx="14" ry="14" width="76" height="36" fill="rgba(255,255,255,0.06)" stroke="rgba(255,255,255,0.16)"/>
      <text x="254" y="24" text-anchor="middle" font-size="12" fill="rgba(255,255,255,0.82)" font-weight="700">保存</text>
    </g>
  </g>

  <g transform="translate(120,170)" filter="url(#shadow)">
    <rect x="0" y="0" rx="18" ry="18" width="1360" height="650" fill="rgba(255,255,255,0.03)" stroke="rgba(255,255,255,0.12)"/>

    <g transform="translate(22,18)" font-family="-apple-system,BlinkMacSystemFont,Segoe UI,sans-serif">
      <g>
        <rect x="0" y="0" rx="14" ry="14" width="140" height="40" fill="rgba(27,191,114,0.12)" stroke="rgba(87,242,166,0.55)"/>
        <text x="70" y="26" text-anchor="middle" font-size="13" fill="rgba(255,255,255,0.86)" font-weight="700">Dashboard</text>
      </g>
      <g transform="translate(156,0)">
        <rect x="0" y="0" rx="14" ry="14" width="110" height="40" fill="rgba(255,255,255,0.04)" stroke="rgba(255,255,255,0.14)"/>
        <text x="55" y="26" text-anchor="middle" font-size="13" fill="rgba(255,255,255,0.80)" font-weight="700">Users</text>
      </g>
      <g transform="translate(276,0)">
        <rect x="0" y="0" rx="14" ry="14" width="110" height="40" fill="rgba(255,255,255,0.04)" stroke="rgba(255,255,255,0.14)"/>
        <text x="55" y="26" text-anchor="middle" font-size="13" fill="rgba(255,255,255,0.80)" font-weight="700">Tasks</text>
      </g>
      <g transform="translate(396,0)">
        <rect x="0" y="0" rx="14" ry="14" width="120" height="40" fill="rgba(255,255,255,0.04)" stroke="rgba(255,255,255,0.14)"/>
        <text x="60" y="26" text-anchor="middle" font-size="13" fill="rgba(255,255,255,0.80)" font-weight="700">Badges</text>
      </g>
      <g transform="translate(528,0)">
        <rect x="0" y="0" rx="14" ry="14" width="110" height="40" fill="rgba(255,255,255,0.04)" stroke="rgba(255,255,255,0.14)"/>
        <text x="55" y="26" text-anchor="middle" font-size="13" fill="rgba(255,255,255,0.80)" font-weight="700">Logs</text>
      </g>
    </g>

    <g transform="translate(22,78)" font-family="-apple-system,BlinkMacSystemFont,Segoe UI,sans-serif">
      <g>
        <rect x="0" y="0" rx="14" ry="14" width="326" height="120" fill="rgba(255,255,255,0.04)" stroke="rgba(255,255,255,0.10)"/>
        <text x="16" y="26" font-size="12" fill="rgba(255,255,255,0.60)">今日</text>
        <text x="16" y="66" font-size="28" fill="rgba(255,255,255,0.92)" font-weight="900">2026-01-12</text>
        <text x="16" y="96" font-size="12" fill="rgba(255,255,255,0.60)">新用户 24</text>
      </g>
      <g transform="translate(344,0)">
        <rect x="0" y="0" rx="14" ry="14" width="326" height="120" fill="rgba(255,255,255,0.04)" stroke="rgba(255,255,255,0.10)"/>
        <text x="16" y="26" font-size="12" fill="rgba(255,255,255,0.60)">总用户</text>
        <text x="16" y="66" font-size="34" fill="rgba(255,255,255,0.92)" font-weight="900">12,840</text>
        <text x="16" y="96" font-size="12" fill="rgba(255,255,255,0.60)">累计注册</text>
      </g>
      <g transform="translate(688,0)">
        <rect x="0" y="0" rx="14" ry="14" width="326" height="120" fill="rgba(255,255,255,0.04)" stroke="rgba(255,255,255,0.10)"/>
        <text x="16" y="26" font-size="12" fill="rgba(255,255,255,0.60)">今日完成</text>
        <text x="16" y="66" font-size="34" fill="rgba(255,255,255,0.92)" font-weight="900">7,230</text>
        <text x="16" y="96" font-size="12" fill="rgba(255,255,255,0.60)">任务完成次数</text>
      </g>
      <g transform="translate(1032,0)">
        <rect x="0" y="0" rx="14" ry="14" width="306" height="120" fill="rgba(255,255,255,0.04)" stroke="rgba(255,255,255,0.10)"/>
        <text x="16" y="26" font-size="12" fill="rgba(255,255,255,0.60)">今日活跃</text>
        <text x="16" y="66" font-size="34" fill="rgba(255,255,255,0.92)" font-weight="900">1,980</text>
        <text x="16" y="96" font-size="12" fill="rgba(255,255,255,0.60)">完成过任务的用户</text>
      </g>
    </g>

    <g transform="translate(22,222)" font-family="-apple-system,BlinkMacSystemFont,Segoe UI,sans-serif">
      <rect x="0" y="0" rx="14" ry="14" width="1316" height="410" fill="rgba(255,255,255,0.04)" stroke="rgba(255,255,255,0.10)"/>
      <text x="16" y="28" font-size="12" fill="rgba(255,255,255,0.60)">最近日志</text>
      <g opacity="0.35" stroke="rgba(255,255,255,0.25)" stroke-width="1">
        <line x1="16" y1="56" x2="1300" y2="56"/>
        <line x1="16" y1="98" x2="1300" y2="98"/>
        <line x1="16" y1="140" x2="1300" y2="140"/>
        <line x1="16" y1="182" x2="1300" y2="182"/>
        <line x1="16" y1="224" x2="1300" y2="224"/>
        <line x1="16" y1="266" x2="1300" y2="266"/>
      </g>
      <g font-size="12" fill="rgba(255,255,255,0.80)">
        <text x="24" y="84">user_registered | user=1283940</text>
        <text x="24" y="126">task_completed | user=1283940 task=2</text>
        <text x="24" y="168">badge_unlocked | user=1283940 badges=new_leaf_3</text>
        <text x="24" y="210">task_completed | user=1283940 task=3</text>
        <text x="24" y="252">task_complete_duplicate | user=1283940 task=3</text>
      </g>
    </g>
  </g>

  <text x="120" y="860" font-family="-apple-system,BlinkMacSystemFont,Segoe UI,sans-serif" font-size="12" fill="rgba(255,255,255,0.55)">
    UI mock · Admin Dashboard
  </text>
</svg>

