<svg xmlns="http://www.w3.org/2000/svg" width="1600" height="900" viewBox="0 0 1600 900">
  <defs>
    <linearGradient id="bg" x1="0" y1="0" x2="1" y2="1">
      <stop offset="0" stop-color="#061512"/>
      <stop offset="1" stop-color="#0b2a22"/>
    </linearGradient>
    <radialGradient id="glow1" cx="20%" cy="18%" r="60%">
      <stop offset="0" stop-color="rgba(27,191,114,0.35)"/>
      <stop offset="1" stop-color="rgba(27,191,114,0)"/>
    </radialGradient>
    <radialGradient id="glow2" cx="78%" cy="22%" r="55%">
      <stop offset="0" stop-color="rgba(87,242,166,0.20)"/>
      <stop offset="1" stop-color="rgba(87,242,166,0)"/>
    </radialGradient>
    <linearGradient id="cta" x1="0" y1="0" x2="0" y2="1">
      <stop offset="0" stop-color="#57f2a6"/>
      <stop offset="1" stop-color="#1bbf72"/>
    </linearGradient>
    <filter id="shadow" x="-20%" y="-20%" width="140%" height="140%">
      <feDropShadow dx="0" dy="18" stdDeviation="18" flood-color="rgba(0,0,0,0.45)"/>
    </filter>
  </defs>

  <rect width="1600" height="900" fill="url(#bg)"/>
  <rect width="1600" height="900" fill="url(#glow1)"/>
  <rect width="1600" height="900" fill="url(#glow2)"/>

  <g opacity="0.18" stroke="rgba(255,255,255,0.35)" stroke-width="1">
    <path d="M70 240 C420 120, 710 140, 980 80 C1210 28, 1390 40, 1530 16" fill="none"/>
    <path d="M40 740 C380 560, 740 590, 1040 520 C1300 460, 1460 480, 1560 450" fill="none"/>
  </g>

  <g transform="translate(140,88)">
    <g transform="translate(0,0)">
      <circle cx="18" cy="18" r="18" fill="#0b241d" stroke="rgba(87,242,166,0.55)"/>
      <path d="M18 8 C24 10,28 16,26 22 C24 30,14 32,12 22 C11 17,14 10,18 8Z" fill="#57f2a6"/>
      <path d="M18 8 L18 30" stroke="#1bbf72" stroke-width="2" stroke-linecap="round"/>
    </g>
    <text x="52" y="26" font-family="-apple-system,BlinkMacSystemFont,Segoe UI,sans-serif" font-size="28" fill="rgba(255,255,255,0.92)" font-weight="700">GreenSphere</text>
    <text x="52" y="50" font-family="-apple-system,BlinkMacSystemFont,Segoe UI,sans-serif" font-size="14" fill="rgba(255,255,255,0.65)">Small Actions. Real Impact.</text>

    <g transform="translate(980,6)">
      <rect x="0" y="0" rx="14" ry="14" width="110" height="36" fill="rgba(255,255,255,0.06)" stroke="rgba(255,255,255,0.14)"/>
      <text x="55" y="24" text-anchor="middle" font-family="-apple-system,BlinkMacSystemFont,Segoe UI,sans-serif" font-size="13" fill="rgba(255,255,255,0.80)">What</text>
      <rect x="128" y="0" rx="14" ry="14" width="120" height="36" fill="rgba(255,255,255,0.06)" stroke="rgba(255,255,255,0.14)"/>
      <text x="188" y="24" text-anchor="middle" font-family="-apple-system,BlinkMacSystemFont,Segoe UI,sans-serif" font-size="13" fill="rgba(255,255,255,0.80)">Pioneer</text>
      <rect x="268" y="0" rx="14" ry="14" width="130" height="36" fill="rgba(255,255,255,0.06)" stroke="rgba(255,255,255,0.14)"/>
      <text x="333" y="24" text-anchor="middle" font-family="-apple-system,BlinkMacSystemFont,Segoe UI,sans-serif" font-size="13" fill="rgba(255,255,255,0.80)">For Companies</text>
    </g>
  </g>

  <g transform="translate(140,190)" filter="url(#shadow)">
    <rect x="0" y="0" rx="22" ry="22" width="1320" height="520" fill="rgba(255,255,255,0.06)" stroke="rgba(255,255,255,0.14)"/>
    <g transform="translate(66,64)">
      <text x="0" y="0" font-family="-apple-system,BlinkMacSystemFont,Segoe UI,sans-serif" font-size="52" fill="rgba(255,255,255,0.94)" font-weight="800">每天 30 秒，记录一件绿色小事</text>
      <text x="0" y="52" font-family="-apple-system,BlinkMacSystemFont,Segoe UI,sans-serif" font-size="18" fill="rgba(255,255,255,0.68)">任务打卡 · G-Points · Streak · 数字贡献徽章（LeafPass）</text>

      <g transform="translate(0,92)">
        <rect x="0" y="0" rx="18" ry="18" width="240" height="52" fill="url(#cta)"/>
        <text x="120" y="33" text-anchor="middle" font-family="-apple-system,BlinkMacSystemFont,Segoe UI,sans-serif" font-size="15" fill="#052016" font-weight="800">在 Telegram 开始</text>

        <rect x="260" y="0" rx="18" ry="18" width="210" height="52" fill="rgba(255,255,255,0.06)" stroke="rgba(87,242,166,0.45)"/>
        <text x="365" y="33" text-anchor="middle" font-family="-apple-system,BlinkMacSystemFont,Segoe UI,sans-serif" font-size="15" fill="rgba(255,255,255,0.86)" font-weight="700">7 天 Pioneer</text>
      </g>

      <g transform="translate(0,176)">
        <rect x="0" y="0" rx="18" ry="18" width="560" height="220" fill="rgba(0,0,0,0.20)" stroke="rgba(255,255,255,0.12)"/>
        <text x="22" y="44" font-family="-apple-system,BlinkMacSystemFont,Segoe UI,sans-serif" font-size="14" fill="rgba(255,255,255,0.80)" font-weight="700">你会得到什么</text>
        <g font-family="-apple-system,BlinkMacSystemFont,Segoe UI,sans-serif" font-size="13" fill="rgba(255,255,255,0.70)">
          <text x="22" y="84">• 低门槛：无需下载 App，聊天入口即开即用</text>
          <text x="22" y="116">• 可坚持：不惩罚中断，鼓励再次回归</text>
          <text x="22" y="148">• 可展示：徽章与档案页，记录你的参与深度</text>
          <text x="22" y="180">• 可扩展：未来对接企业ESG与合作方事件（T2）</text>
        </g>
      </g>
    </g>

    <g transform="translate(870,90)">
      <rect x="0" y="0" rx="26" ry="26" width="360" height="430" fill="rgba(0,0,0,0.18)" stroke="rgba(255,255,255,0.12)"/>
      <rect x="22" y="24" rx="18" ry="18" width="316" height="54" fill="rgba(255,255,255,0.06)" stroke="rgba(255,255,255,0.12)"/>
      <text x="46" y="57" font-family="-apple-system,BlinkMacSystemFont,Segoe UI,sans-serif" font-size="14" fill="rgba(255,255,255,0.78)" font-weight="700">今日任务</text>
      <g transform="translate(22,98)" font-family="-apple-system,BlinkMacSystemFont,Segoe UI,sans-serif">
        <rect x="0" y="0" rx="16" ry="16" width="316" height="74" fill="rgba(27,191,114,0.12)" stroke="rgba(87,242,166,0.28)"/>
        <text x="18" y="30" font-size="14" fill="rgba(255,255,255,0.88)" font-weight="700">步行 5,000 步</text>
        <text x="18" y="54" font-size="12" fill="rgba(255,255,255,0.65)">+10 G-Points</text>

        <rect x="0" y="90" rx="16" ry="16" width="316" height="74" fill="rgba(255,255,255,0.05)" stroke="rgba(255,255,255,0.12)"/>
        <text x="18" y="120" font-size="14" fill="rgba(255,255,255,0.84)" font-weight="700">不用一次性塑料袋</text>
        <text x="18" y="144" font-size="12" fill="rgba(255,255,255,0.65)">+10 G-Points</text>

        <rect x="0" y="180" rx="16" ry="16" width="316" height="74" fill="rgba(255,255,255,0.05)" stroke="rgba(255,255,255,0.12)"/>
        <text x="18" y="210" font-size="14" fill="rgba(255,255,255,0.84)" font-weight="700">关灯节能 30 分钟</text>
        <text x="18" y="234" font-size="12" fill="rgba(255,255,255,0.65)">+10 G-Points</text>
      </g>
    </g>
  </g>

  <text x="140" y="840" font-family="-apple-system,BlinkMacSystemFont,Segoe UI,sans-serif" font-size="12" fill="rgba(255,255,255,0.55)">
    UI mock · Green tech theme · Website Home
  </text>
</svg>

